<mxfile host="app.diagrams.net" modified="2022-11-15T13:16:11.300Z" agent="5.0 (Macintosh; Intel Mac OS X 10_15_7) AppleWebKit/537.36 (KHTML, like Gecko) Chrome/107.0.0.0 Safari/537.36" etag="cwzxWadtFUkimS6lPJNf" version="20.5.3" type="github">
  <diagram id="_LWatz_bAWZX0u8cerZj" name="第 1 页">
    <mxGraphModel dx="1722" dy="968" grid="1" gridSize="10" guides="1" tooltips="1" connect="1" arrows="1" fold="1" page="1" pageScale="1" pageWidth="827" pageHeight="1169" math="0" shadow="0">
      <root>
        <mxCell id="0" />
        <mxCell id="1" parent="0" />
        <mxCell id="2oHL4kLDv9eCXuU7A7OA-4" value="" style="sketch=0;pointerEvents=1;shadow=0;dashed=0;html=1;strokeColor=none;fillColor=#505050;labelPosition=center;verticalLabelPosition=bottom;verticalAlign=top;outlineConnect=0;align=center;shape=mxgraph.office.devices.cell_phone_iphone_proportional;" vertex="1" parent="1">
          <mxGeometry x="80" y="80" width="50" height="80.5" as="geometry" />
        </mxCell>
        <mxCell id="2oHL4kLDv9eCXuU7A7OA-6" value="" style="sketch=0;pointerEvents=1;shadow=0;dashed=0;html=1;strokeColor=none;fillColor=#505050;labelPosition=center;verticalLabelPosition=bottom;verticalAlign=top;outlineConnect=0;align=center;shape=mxgraph.office.devices.cell_phone_iphone_proportional;" vertex="1" parent="1">
          <mxGeometry x="720" y="80" width="50" height="80.5" as="geometry" />
        </mxCell>
        <mxCell id="2oHL4kLDv9eCXuU7A7OA-7" value="" style="fontColor=#0066CC;verticalAlign=top;verticalLabelPosition=bottom;labelPosition=center;align=center;html=1;outlineConnect=0;fillColor=#CCCCCC;strokeColor=#6881B3;gradientColor=none;gradientDirection=north;strokeWidth=2;shape=mxgraph.networks.desktop_pc;" vertex="1" parent="1">
          <mxGeometry x="280" y="80" width="46" height="74.25" as="geometry" />
        </mxCell>
        <mxCell id="2oHL4kLDv9eCXuU7A7OA-8" value="clientA" style="text;html=1;resizable=0;autosize=1;align=center;verticalAlign=middle;points=[];fillColor=none;strokeColor=none;rounded=0;" vertex="1" parent="1">
          <mxGeometry x="75" y="170" width="60" height="30" as="geometry" />
        </mxCell>
        <mxCell id="2oHL4kLDv9eCXuU7A7OA-9" value="clientB" style="text;html=1;resizable=0;autosize=1;align=center;verticalAlign=middle;points=[];fillColor=none;strokeColor=none;rounded=0;" vertex="1" parent="1">
          <mxGeometry x="715" y="170" width="60" height="30" as="geometry" />
        </mxCell>
        <mxCell id="2oHL4kLDv9eCXuU7A7OA-10" value="server" style="text;html=1;resizable=0;autosize=1;align=center;verticalAlign=middle;points=[];fillColor=none;strokeColor=none;rounded=0;" vertex="1" parent="1">
          <mxGeometry x="273" y="170" width="60" height="30" as="geometry" />
        </mxCell>
        <mxCell id="2oHL4kLDv9eCXuU7A7OA-11" value="" style="aspect=fixed;perimeter=ellipsePerimeter;html=1;align=center;shadow=0;dashed=0;fontColor=#4277BB;labelBackgroundColor=#ffffff;fontSize=12;spacingTop=3;image;image=img/lib/ibm/blockchain/blockchain.svg;" vertex="1" parent="1">
          <mxGeometry x="490" y="83.75" width="73" height="73" as="geometry" />
        </mxCell>
        <mxCell id="2oHL4kLDv9eCXuU7A7OA-12" value="公链" style="text;html=1;resizable=0;autosize=1;align=center;verticalAlign=middle;points=[];fillColor=none;strokeColor=none;rounded=0;" vertex="1" parent="1">
          <mxGeometry x="508" y="170" width="50" height="30" as="geometry" />
        </mxCell>
        <mxCell id="2oHL4kLDv9eCXuU7A7OA-13" value="" style="line;strokeWidth=2;direction=south;html=1;" vertex="1" parent="1">
          <mxGeometry x="90" y="220" width="10" height="920" as="geometry" />
        </mxCell>
        <mxCell id="2oHL4kLDv9eCXuU7A7OA-14" value="" style="line;strokeWidth=2;direction=south;html=1;" vertex="1" parent="1">
          <mxGeometry x="298" y="210" width="10" height="930" as="geometry" />
        </mxCell>
        <mxCell id="2oHL4kLDv9eCXuU7A7OA-17" value="" style="line;strokeWidth=2;direction=south;html=1;" vertex="1" parent="1">
          <mxGeometry x="528" y="210" width="10" height="930" as="geometry" />
        </mxCell>
        <mxCell id="2oHL4kLDv9eCXuU7A7OA-18" value="" style="line;strokeWidth=2;direction=south;html=1;" vertex="1" parent="1">
          <mxGeometry x="740" y="210" width="10" height="930" as="geometry" />
        </mxCell>
        <mxCell id="2oHL4kLDv9eCXuU7A7OA-19" value="DKG" style="text;html=1;resizable=0;autosize=1;align=center;verticalAlign=middle;points=[];fillColor=none;strokeColor=none;rounded=0;" vertex="1" parent="1">
          <mxGeometry x="389" y="20" width="50" height="30" as="geometry" />
        </mxCell>
      </root>
    </mxGraphModel>
  </diagram>
</mxfile>
